# WaveFront *.obj file
# Vertices: 132
# Triangles : 116

v 1.600000023841858 -4.973799171496525e-16 -9.175088016182673e-17
v 1.6196671724319458 0.18712052702903748 0.0
v 1.6778091192245483 0.3660629689693451 0.0
v 1.7718846797943115 0.5290067195892334 0.0
v 1.8977824449539185 0.6688303351402283 0.0
v 2.049999952316284 0.7794228792190552 0.0
v 2.2218847274780273 0.8559508919715881 0.0
v 2.4059243202209473 0.8950697183609009 0.0
v 2.5940756797790527 0.8950697183609009 0.0
v 2.7781152725219727 0.8559508919715881 0.0
v 2.950000047683716 0.7794228792190552 0.0
v 3.102217435836792 0.6688303351402283 0.0
v 3.2281153202056885 0.5290067195892334 0.0
v 3.322190999984741 0.3660629689693451 0.0
v 3.3803329467773438 0.18712052702903748 0.0
v 3.4000000953674316 -1.0569323702651259e-15 -1.3252058099898103e-16
v 3.4000000953674316 -1.0569323702651259e-15 10.0
v 3.3803329467773438 0.18712052702903748 10.0
v 3.322190999984741 0.3660629689693451 10.0
v 3.2281153202056885 0.5290067195892334 10.0
v 3.102217435836792 0.6688303351402283 10.0
v 2.950000047683716 0.7794228792190552 10.0
v 2.7781152725219727 0.8559508919715881 10.0
v 2.5940756797790527 0.8950697183609009 10.0
v 2.4059243202209473 0.8950697183609009 10.0
v 2.2218847274780273 0.8559508919715881 10.0
v 2.049999952316284 0.7794228792190552 10.0
v 1.8977824449539185 0.6688303351402283 10.0
v 1.7718846797943115 0.5290067195892334 10.0
v 1.6778091192245483 0.3660629689693451 10.0
v 1.6196671724319458 0.18712052702903748 10.0
v 1.600000023841858 -4.973799171496525e-16 10.0
v 1.600000023841858 -4.973799171496525e-16 -9.175088016182673e-17
v 1.600000023841858 -4.973799171496525e-16 10.0
v 0.0 0.0 10.0
v 0.0 0.0 0.0
v 3.4000000953674316 -1.0569323702651259e-15 10.0
v 3.4000000953674316 -1.0569323702651259e-15 -1.3252058099898103e-16
v 5.0 -4.425974524810498e-16 0.0
v 5.0 -4.440892098500626e-16 10.0
v 3.4000000953674316 -1.0569323702651259e-15 -1.3252058099898103e-16
v 3.3803329467773438 0.18712052702903748 0.0
v 3.322190999984741 0.3660629689693451 0.0
v 3.2281153202056885 0.5290067195892334 0.0
v 3.102217435836792 0.6688303351402283 0.0
v 2.950000047683716 0.7794228792190552 0.0
v 2.7781152725219727 0.8559508919715881 0.0
v 2.5940756797790527 0.8950697183609009 0.0
v 2.4059243202209473 0.8950697183609009 0.0
v 2.2218847274780273 0.8559508919715881 0.0
v 2.049999952316284 0.7794228792190552 0.0
v 1.8977824449539185 0.6688303351402283 0.0
v 1.7718846797943115 0.5290067195892334 0.0
v 1.6778091192245483 0.3660629689693451 0.0
v 1.6196671724319458 0.18712052702903748 0.0
v 1.600000023841858 -4.973799171496525e-16 -9.175088016182673e-17
v 0.0 0.0 0.0
v 0.0 0.800000011920929 0.0
v 0.4290631115436554 0.9958763718605042 0.0
v 0.8733101487159729 1.1543291807174683 0.0
v 1.3294838666915894 1.2741966247558594 0.0
v 1.7942397594451904 1.3545998334884644 0.0
v 2.2641701698303223 1.3949493169784546 0.0
v 2.7358298301696777 1.3949493169784546 0.0
v 3.2057602405548096 1.3545998334884644 0.0
v 3.670516014099121 1.2741966247558594 0.0
v 4.126689910888672 1.1543291807174683 0.0
v 4.570936679840088 0.9958763718605042 0.0
v 5.0 0.800000011920929 0.0
v 5.0 -4.425974524810498e-16 0.0
v 5.0 -4.425974524810498e-16 0.0
v 5.0 0.800000011920929 0.0
v 5.0 0.800000011920929 10.0
v 5.0 -4.440892098500626e-16 10.0
v 0.0 0.800000011920929 0.0
v 0.0 0.0 0.0
v 0.0 0.0 10.0
v 0.0 0.800000011920929 10.0
v 5.0 0.800000011920929 0.0
v 4.570936679840088 0.9958763718605042 0.0
v 4.126689910888672 1.1543291807174683 0.0
v 3.670516014099121 1.2741966247558594 0.0
v 3.2057602405548096 1.3545998334884644 0.0
v 2.7358298301696777 1.3949493169784546 0.0
v 2.2641701698303223 1.3949493169784546 0.0
v 1.7942397594451904 1.3545998334884644 0.0
v 1.3294838666915894 1.2741966247558594 0.0
v 0.8733101487159729 1.1543291807174683 0.0
v 0.4290631115436554 0.9958763718605042 0.0
v 0.0 0.800000011920929 0.0
v 0.0 0.800000011920929 10.0
v 0.4290631115436554 0.9958763718605042 10.0
v 0.8733101487159729 1.1543291807174683 10.0
v 1.3294838666915894 1.2741966247558594 10.0
v 1.7942397594451904 1.3545998334884644 10.0
v 2.2641701698303223 1.3949493169784546 10.0
v 2.7358298301696777 1.3949493169784546 10.0
v 3.2057602405548096 1.3545998334884644 10.0
v 3.670516014099121 1.2741966247558594 10.0
v 4.126689910888672 1.1543291807174683 10.0
v 4.570936679840088 0.9958763718605042 10.0
v 5.0 0.800000011920929 10.0
v 1.600000023841858 -4.973799171496525e-16 10.0
v 1.6196671724319458 0.18712052702903748 10.0
v 1.6778091192245483 0.3660629689693451 10.0
v 1.7718846797943115 0.5290067195892334 10.0
v 1.8977824449539185 0.6688303351402283 10.0
v 2.049999952316284 0.7794228792190552 10.0
v 2.2218847274780273 0.8559508919715881 10.0
v 2.4059243202209473 0.8950697183609009 10.0
v 2.5940756797790527 0.8950697183609009 10.0
v 2.7781152725219727 0.8559508919715881 10.0
v 2.950000047683716 0.7794228792190552 10.0
v 3.102217435836792 0.6688303351402283 10.0
v 3.2281153202056885 0.5290067195892334 10.0
v 3.322190999984741 0.3660629689693451 10.0
v 3.3803329467773438 0.18712052702903748 10.0
v 3.4000000953674316 -1.0569323702651259e-15 10.0
v 5.0 -4.440892098500626e-16 10.0
v 5.0 0.800000011920929 10.0
v 4.570936679840088 0.9958763718605042 10.0
v 4.126689910888672 1.1543291807174683 10.0
v 3.670516014099121 1.2741966247558594 10.0
v 3.2057602405548096 1.3545998334884644 10.0
v 2.7358298301696777 1.3949493169784546 10.0
v 2.2641701698303223 1.3949493169784546 10.0
v 1.7942397594451904 1.3545998334884644 10.0
v 1.3294838666915894 1.2741966247558594 10.0
v 0.8733101487159729 1.1543291807174683 10.0
v 0.4290631115436554 0.9958763718605042 10.0
v 0.0 0.800000011920929 10.0
v 0.0 0.0 10.0
vn 1.0 -3.108624416010879e-16 0.0
vn 0.9781476259231567 -0.2079116851091385 0.0
vn 0.9135454297065735 -0.4067366421222687 0.0
vn 0.80901700258255 -0.5877852439880371 0.0
vn 0.6691306233406067 -0.7431448101997375 0.0
vn 0.5 -0.8660253882408142 0.0
vn 0.30901700258255005 -0.9510565400123596 0.0
vn 0.10452846437692642 -0.9945219159126282 0.0
vn -0.10452846437692642 -0.9945219159126282 0.0
vn -0.30901700258255005 -0.9510565400123596 0.0
vn -0.5 -0.8660253882408142 0.0
vn -0.6691306233406067 -0.7431448101997375 0.0
vn -0.80901700258255 -0.5877852439880371 0.0
vn -0.9135454297065735 -0.4067366421222687 0.0
vn -0.9781476259231567 -0.2079116851091385 0.0
vn -1.0 3.2162452459154583e-16 0.0
vn -1.0 3.2162452459154583e-16 0.0
vn -0.9781476259231567 -0.2079116851091385 0.0
vn -0.9135454297065735 -0.4067366421222687 0.0
vn -0.80901700258255 -0.5877852439880371 0.0
vn -0.6691306233406067 -0.7431448101997375 0.0
vn -0.5 -0.8660253882408142 0.0
vn -0.30901700258255005 -0.9510565400123596 0.0
vn -0.10452846437692642 -0.9945219159126282 0.0
vn 0.10452846437692642 -0.9945219159126282 0.0
vn 0.30901700258255005 -0.9510565400123596 0.0
vn 0.5 -0.8660253882408142 0.0
vn 0.6691306233406067 -0.7431448101997375 0.0
vn 0.80901700258255 -0.5877852439880371 0.0
vn 0.9135454297065735 -0.4067366421222687 0.0
vn 0.9781476259231567 -0.2079116851091385 0.0
vn 1.0 -3.108624416010879e-16 0.0
vn -8.851948917272098e-17 -1.0 0.0
vn -8.851948917272098e-17 -1.0 0.0
vn -8.851948917272098e-17 -1.0 0.0
vn -8.851948917272098e-17 -1.0 0.0
vn -8.851948917272098e-17 -1.0 0.0
vn -8.851948917272098e-17 -1.0 0.0
vn -8.851948917272098e-17 -1.0 0.0
vn -8.851948917272098e-17 -1.0 0.0
vn -0.0 0.0 -1.0
vn -0.0 0.0 -1.0
vn -0.0 0.0 -1.0
vn -0.0 0.0 -1.0
vn -0.0 0.0 -1.0
vn -0.0 0.0 -1.0
vn -0.0 0.0 -1.0
vn -0.0 0.0 -1.0
vn -0.0 0.0 -1.0
vn -0.0 0.0 -1.0
vn -0.0 0.0 -1.0
vn -0.0 0.0 -1.0
vn -0.0 0.0 -1.0
vn -0.0 0.0 -1.0
vn -0.0 0.0 -1.0
vn -0.0 0.0 -1.0
vn -0.0 0.0 -1.0
vn -0.0 0.0 -1.0
vn -0.0 0.0 -1.0
vn -0.0 0.0 -1.0
vn -0.0 0.0 -1.0
vn -0.0 0.0 -1.0
vn -0.0 0.0 -1.0
vn -0.0 0.0 -1.0
vn -0.0 0.0 -1.0
vn -0.0 0.0 -1.0
vn -0.0 0.0 -1.0
vn -0.0 0.0 -1.0
vn -0.0 0.0 -1.0
vn -0.0 0.0 -1.0
vn 1.0 0.0 0.0
vn 1.0 0.0 0.0
vn 1.0 0.0 0.0
vn 1.0 0.0 0.0
vn -1.0 0.0 0.0
vn -1.0 0.0 0.0
vn -1.0 0.0 0.0
vn -1.0 0.0 0.0
vn 0.45385777950286865 0.8910741209983826 -0.0
vn 0.37596434354782104 0.9266341328620911 -0.0
vn 0.29531434178352356 0.9554001688957214 -0.0
vn 0.21249914169311523 0.9771612286567688 -0.0
vn 0.12812590599060059 0.9917579293251038 -0.0
vn 0.042813271284103394 0.9990831017494202 -0.0
vn -0.042813271284103394 0.9990831017494202 -0.0
vn -0.12812590599060059 0.9917579293251038 -0.0
vn -0.21249914169311523 0.9771612286567688 -0.0
vn -0.29531434178352356 0.9554001688957214 -0.0
vn -0.37596434354782104 0.9266341328620911 -0.0
vn -0.45385777950286865 0.8910741209983826 -0.0
vn -0.45385777950286865 0.8910741209983826 -0.0
vn -0.37596434354782104 0.9266341328620911 -0.0
vn -0.29531434178352356 0.9554001688957214 -0.0
vn -0.21249914169311523 0.9771612286567688 -0.0
vn -0.12812590599060059 0.9917579293251038 -0.0
vn -0.042813271284103394 0.9990831017494202 -0.0
vn 0.042813271284103394 0.9990831017494202 -0.0
vn 0.12812590599060059 0.9917579293251038 -0.0
vn 0.21249914169311523 0.9771612286567688 -0.0
vn 0.29531434178352356 0.9554001688957214 -0.0
vn 0.37596434354782104 0.9266341328620911 -0.0
vn 0.45385777950286865 0.8910741209983826 -0.0
vn 0.0 0.0 1.0
vn 0.0 0.0 1.0
vn 0.0 0.0 1.0
vn 0.0 0.0 1.0
vn 0.0 0.0 1.0
vn 0.0 0.0 1.0
vn 0.0 0.0 1.0
vn 0.0 0.0 1.0
vn 0.0 0.0 1.0
vn 0.0 0.0 1.0
vn 0.0 0.0 1.0
vn 0.0 0.0 1.0
vn 0.0 0.0 1.0
vn 0.0 0.0 1.0
vn 0.0 0.0 1.0
vn 0.0 0.0 1.0
vn 0.0 0.0 1.0
vn 0.0 0.0 1.0
vn 0.0 0.0 1.0
vn 0.0 0.0 1.0
vn 0.0 0.0 1.0
vn 0.0 0.0 1.0
vn 0.0 0.0 1.0
vn 0.0 0.0 1.0
vn 0.0 0.0 1.0
vn 0.0 0.0 1.0
vn 0.0 0.0 1.0
vn 0.0 0.0 1.0
vn 0.0 0.0 1.0
vn 0.0 0.0 1.0
g acf9aefa-6512-11eb-9d92-acde48001122
f 32//32 1//1 31//31
f 31//31 1//1 2//2
f 31//31 2//2 30//30
f 30//30 2//2 3//3
f 30//30 3//3 29//29
f 29//29 3//3 4//4
f 29//29 4//4 28//28
f 28//28 4//4 5//5
f 28//28 5//5 27//27
f 27//27 5//5 6//6
f 27//27 6//6 26//26
f 26//26 6//6 7//7
f 26//26 7//7 25//25
f 25//25 7//7 8//8
f 25//25 8//8 24//24
f 24//24 8//8 9//9
f 24//24 9//9 23//23
f 23//23 9//9 10//10
f 23//23 10//10 22//22
f 22//22 10//10 11//11
f 22//22 11//11 21//21
f 21//21 11//11 12//12
f 21//21 12//12 20//20
f 20//20 12//12 13//13
f 20//20 13//13 19//19
f 19//19 13//13 14//14
f 19//19 14//14 18//18
f 18//18 14//14 15//15
f 18//18 15//15 17//17
f 17//17 15//15 16//16
g acf9e028-6512-11eb-9d92-acde48001122
f 34//34 35//35 33//33
f 33//33 35//35 36//36
g acfa34ec-6512-11eb-9d92-acde48001122
f 38//38 39//39 37//37
f 37//37 39//39 40//40
g acfbb5d8-6512-11eb-9d92-acde48001122
f 41//41 42//42 70//70
f 70//70 42//42 43//43
f 70//70 43//43 69//69
f 69//69 43//43 44//44
f 69//69 44//44 45//45
f 69//69 45//45 68//68
f 68//68 45//45 46//46
f 68//68 46//46 67//67
f 67//67 46//46 47//47
f 67//67 47//47 66//66
f 66//66 47//47 65//65
f 65//65 47//47 48//48
f 65//65 48//48 64//64
f 64//64 48//48 49//49
f 64//64 49//49 63//63
f 63//63 49//49 62//62
f 62//62 49//49 50//50
f 62//62 50//50 61//61
f 61//61 50//50 60//60
f 60//60 50//50 51//51
f 60//60 51//51 59//59
f 59//59 51//51 52//52
f 59//59 52//52 58//58
f 58//58 52//52 53//53
f 58//58 53//53 54//54
f 58//58 54//54 57//57
f 57//57 54//54 55//55
f 57//57 55//55 56//56
g acfc8f8a-6512-11eb-9d92-acde48001122
f 71//71 72//72 74//74
f 74//74 72//72 73//73
g acfe428a-6512-11eb-9d92-acde48001122
f 75//75 76//76 78//78
f 78//78 76//76 77//77
g acfffb16-6512-11eb-9d92-acde48001122
f 102//102 79//79 101//101
f 101//101 79//79 80//80
f 101//101 80//80 100//100
f 100//100 80//80 81//81
f 100//100 81//81 99//99
f 99//99 81//81 82//82
f 99//99 82//82 98//98
f 98//98 82//82 83//83
f 98//98 83//83 97//97
f 97//97 83//83 84//84
f 97//97 84//84 96//96
f 96//96 84//84 85//85
f 96//96 85//85 95//95
f 95//95 85//85 86//86
f 95//95 86//86 94//94
f 94//94 86//86 87//87
f 94//94 87//87 93//93
f 93//93 87//87 88//88
f 93//93 88//88 92//92
f 92//92 88//88 89//89
f 92//92 89//89 91//91
f 91//91 89//89 90//90
g ad01f0ec-6512-11eb-9d92-acde48001122
f 103//103 104//104 132//132
f 132//132 104//104 105//105
f 132//132 105//105 131//131
f 131//131 105//105 106//106
f 131//131 106//106 107//107
f 131//131 107//107 130//130
f 130//130 107//107 108//108
f 130//130 108//108 129//129
f 129//129 108//108 109//109
f 129//129 109//109 128//128
f 128//128 109//109 127//127
f 127//127 109//109 110//110
f 127//127 110//110 126//126
f 126//126 110//110 111//111
f 126//126 111//111 125//125
f 125//125 111//111 124//124
f 124//124 111//111 112//112
f 124//124 112//112 123//123
f 123//123 112//112 122//122
f 122//122 112//112 113//113
f 122//122 113//113 121//121
f 121//121 113//113 114//114
f 121//121 114//114 120//120
f 120//120 114//114 115//115
f 120//120 115//115 116//116
f 120//120 116//116 119//119
f 119//119 116//116 117//117
f 119//119 117//117 118//118

# End of file