22600 0 2 4           
30 Autodesk Translation Framework 21 ASM 226.3.0.65535 OSX 24 Wed Aug 26 15:45:59 2020 
10 9.999999999999999547e-07 1.000000000000000036e-10 
asmheader $-1 -1 @13 226.3.0.65535 #
body $2 -1 $-1 $3 $-1 $4 #
rgb_color-st-attrib $-1 -1 $5 $-1 $1 0.627450980392156854 0.627450980392156854 0.627450980392156854 1 #
lump $-1 -1 $-1 $-1 $6 $1 #
transform $-1 -1 1 0 0 0 1 0 0 0 1 0 0 0 1 no_rotate no_reflect no_shear #
ATTRIB_CUSTOM-attrib $-1 -1 $-1 $2 $1 @20 Timestamp_attrib_def 1 1598475643613824 #
shell $-1 -1 $-1 $-1 $-1 $7 $-1 $3 #
face $8 -1 $-1 $9 $10 $6 $-1 $11 forward single #
DXID-attrib $-1 -1 $-1 $-1 $7 @10 ASM ENTITY @1 0 #
face $12 -1 $-1 $13 $14 $6 $-1 $15 forward single #
loop $-1 -1 $-1 $-1 $16 $7 #
plane-surface $-1 -1 $-1 0 0 0 1 0 -0 -0 1 -0 forward_v I I I I #
DXID-attrib $-1 -1 $-1 $-1 $9 @10 ASM ENTITY @1 1 #
face $17 -1 $-1 $18 $19 $6 $-1 $20 forward single #
loop $-1 -1 $-1 $-1 $21 $9 #
plane-surface $-1 -1 $-1 -1.000000014901161194 0 0 0 -1 0 1 -0 -0 forward_v I I I I #
coedge $22 -1 $-1 $23 $24 $25 $26 reversed $10 0 $-1 #
DXID-attrib $-1 -1 $-1 $-1 $13 @10 ASM ENTITY @1 2 #
face $27 -1 $-1 $28 $29 $6 $-1 $30 forward single #
loop $-1 -1 $-1 $-1 $31 $13 #
plane-surface $-1 -1 $-1 -1.000000014901161194 1.000000014901161194 0 -1 0 0 -0 -1 -0 forward_v I I I I #
coedge $32 -1 $-1 $33 $34 $35 $36 reversed $14 0 $-1 #
ATTRIB_CUSTOM-attrib $-1 -1 $-1 $-1 $16 @17 sketch_attrib_def 1 1 3 @13 108 0 1 0 1 1 #
coedge $-1 -1 $-1 $37 $16 $38 $39 forward $10 0 $-1 #
coedge $-1 -1 $-1 $16 $37 $33 $40 reversed $10 0 $-1 #
coedge $41 -1 $-1 $35 $42 $16 $26 forward $43 0 $-1 #
edge $-1 -1 $-1 $44 0 $45 1.000000014901161194 $16 $46 forward @7 unknown #
DXID-attrib $-1 -1 $-1 $-1 $18 @10 ASM ENTITY @1 3 #
face $47 -1 $-1 $48 $49 $6 $-1 $50 forward single #
loop $-1 -1 $-1 $-1 $51 $18 #
plane-surface $-1 -1 $-1 0 1.000000014901161194 0 0 1 0 -1 -0 -0 forward_v I I I I #
coedge $52 -1 $-1 $53 $54 $55 $56 reversed $19 0 $-1 #
ATTRIB_CUSTOM-attrib $-1 -1 $-1 $-1 $21 @17 sketch_attrib_def 1 1 3 @13 105 0 1 0 1 1 #
coedge $-1 -1 $-1 $57 $21 $24 $40 forward $14 0 $-1 #
coedge $-1 -1 $-1 $21 $57 $53 $58 reversed $14 0 $-1 #
coedge $59 -1 $-1 $55 $25 $21 $36 forward $43 0 $-1 #
edge $-1 -1 $-1 $45 0 $60 1.000000014901161194 $21 $61 forward @7 unknown #
coedge $-1 -1 $-1 $24 $23 $62 $63 reversed $10 0 $-1 #
coedge $-1 -1 $-1 $51 $64 $23 $39 reversed $29 0 $-1 #
edge $-1 -1 $-1 $44 0 $65 1 $38 $66 forward @7 unknown #
edge $-1 -1 $-1 $45 0 $67 1 $33 $68 forward @7 unknown #
ATTRIB_CUSTOM-attrib $-1 -1 $-1 $-1 $25 @17 sketch_attrib_def 1 1 3 @13 108 0 1 0 1 1 #
coedge $69 -1 $-1 $25 $55 $51 $70 forward $43 0 $-1 #
loop $-1 -1 $-1 $-1 $42 $48 #
vertex $-1 -1 $-1 $70 1 $71 #
vertex $-1 -1 $-1 $36 0 $72 #
straight-curve $-1 -1 $-1 0 1.000000014901161194 0 0 -1 0 F 0 F 1.000000014901161194 #
DXID-attrib $-1 -1 $-1 $-1 $28 @10 ASM ENTITY @1 4 #
face $73 -1 $-1 $-1 $43 $6 $-1 $74 reversed single #
loop $-1 -1 $-1 $-1 $75 $28 #
plane-surface $-1 -1 $-1 -0.5000000074505805969 0.5000000074505805969 1 0 0 1 1 0 0 forward_v I I I I #
coedge $76 -1 $-1 $77 $38 $42 $70 reversed $29 0 $-1 #
ATTRIB_CUSTOM-attrib $-1 -1 $-1 $-1 $31 @17 sketch_attrib_def 1 1 3 @13 106 0 1 0 1 1 #
coedge $-1 -1 $-1 $78 $31 $34 $58 forward $19 0 $-1 #
coedge $-1 -1 $-1 $31 $78 $77 $79 reversed $19 0 $-1 #
coedge $80 -1 $-1 $42 $35 $31 $56 forward $43 0 $-1 #
edge $-1 -1 $-1 $60 0 $81 1.000000014901161194 $31 $82 forward @7 unknown #
coedge $-1 -1 $-1 $34 $33 $83 $84 reversed $14 0 $-1 #
edge $-1 -1 $-1 $60 0 $85 1 $53 $86 forward @7 unknown #
ATTRIB_CUSTOM-attrib $-1 -1 $-1 $-1 $35 @17 sketch_attrib_def 1 1 3 @13 105 0 1 0 1 1 #
vertex $-1 -1 $-1 $56 0 $87 #
straight-curve $-1 -1 $-1 0 0 0 -1 0 0 F 0 F 1.000000014901161194 #
coedge $-1 -1 $-1 $75 $83 $37 $63 forward $49 0 $-1 #
edge $-1 -1 $-1 $67 -1.000000014901161194 $65 -0 $37 $88 forward @7 unknown #
coedge $-1 -1 $-1 $38 $77 $75 $89 reversed $29 0 $-1 #
vertex $-1 -1 $-1 $39 1 $90 #
straight-curve $-1 -1 $-1 0 1.000000014901161194 0 0 0 1 I I #
vertex $-1 -1 $-1 $40 1 $91 #
straight-curve $-1 -1 $-1 0 0 0 0 0 1 I I #
ATTRIB_CUSTOM-attrib $-1 -1 $-1 $-1 $42 @17 sketch_attrib_def 1 1 3 @13 107 0 1 0 1 1 #
edge $-1 -1 $-1 $81 0 $44 1.000000014901161194 $51 $92 forward @7 unknown #
point $-1 -1 $-1 0 1.000000014901161194 0 #
point $-1 -1 $-1 0 0 0 #
DXID-attrib $-1 -1 $-1 $-1 $48 @10 ASM ENTITY @1 5 #
plane-surface $-1 -1 $-1 -0.5000000074505805969 0.5000000074505805969 0 0 -0 1 1 0 -0 forward_v I I I I #
coedge $-1 -1 $-1 $93 $62 $64 $89 forward $49 0 $-1 #
ATTRIB_CUSTOM-attrib $-1 -1 $-1 $-1 $51 @17 sketch_attrib_def 1 1 3 @13 107 0 1 0 1 1 #
coedge $-1 -1 $-1 $64 $51 $54 $79 forward $29 0 $-1 #
coedge $-1 -1 $-1 $54 $53 $93 $94 reversed $19 0 $-1 #
edge $-1 -1 $-1 $81 0 $95 1 $77 $96 forward @7 unknown #
ATTRIB_CUSTOM-attrib $-1 -1 $-1 $-1 $55 @17 sketch_attrib_def 1 1 3 @13 106 0 1 0 1 1 #
vertex $-1 -1 $-1 $70 0 $97 #
straight-curve $-1 -1 $-1 -1.000000014901161194 0 0 0 1 0 F 0 F 1.000000014901161194 #
coedge $-1 -1 $-1 $62 $93 $57 $84 forward $49 0 $-1 #
edge $-1 -1 $-1 $85 -1.000000014901161194 $67 -0 $57 $98 forward @7 unknown #
vertex $-1 -1 $-1 $58 1 $99 #
straight-curve $-1 -1 $-1 -1.000000014901161194 0 0 0 0 1 I I #
point $-1 -1 $-1 -1.000000014901161194 0 0 #
straight-curve $-1 -1 $-1 0 1.000000014901161194 1 0 1 0 I I #
edge $-1 -1 $-1 $65 -1.000000014901161194 $95 -0 $64 $100 forward @7 unknown #
point $-1 -1 $-1 0 1.000000014901161194 1 #
point $-1 -1 $-1 0 0 1 #
straight-curve $-1 -1 $-1 -1.000000014901161194 1.000000014901161194 0 1 0 0 F 0 F 1.000000014901161194 #
coedge $-1 -1 $-1 $83 $75 $78 $94 forward $49 0 $-1 #
edge $-1 -1 $-1 $95 -1.000000014901161194 $85 -0 $78 $101 forward @7 unknown #
vertex $-1 -1 $-1 $79 1 $102 #
straight-curve $-1 -1 $-1 -1.000000014901161194 1.000000014901161194 0 0 0 1 I I #
point $-1 -1 $-1 -1.000000014901161194 1.000000014901161194 0 #
straight-curve $-1 -1 $-1 0 0 1 1 0 0 I I #
point $-1 -1 $-1 -1.000000014901161194 0 1 #
straight-curve $-1 -1 $-1 -1.000000014901161194 1.000000014901161194 1 -1 -0 -0 I I #
straight-curve $-1 -1 $-1 -1.000000014901161194 0 1 -0 -1 -0 I I #
point $-1 -1 $-1 -1.000000014901161194 1.000000014901161194 1 #
End-of-ASM-data 