22600 0 3 4           
30 Autodesk Translation Framework 21 ASM 226.3.0.65535 OSX 24 Wed Sep  9 14:46:15 2020 
10 9.999999999999999547e-07 1.000000000000000036e-10 
asmheader $-1 -1 @13 226.3.0.65535 #
body $3 -1 $-1 $4 $-1 $5 #
body $6 -1 $-1 $7 $-1 $8 #
rgb_color-st-attrib $-1 -1 $9 $-1 $1 0.627450980392156854 0.627450980392156854 0.627450980392156854 1 #
lump $-1 -1 $-1 $-1 $10 $1 #
transform $-1 -1 1 0 0 0 1 0 0 0 1 0 0 0 1 no_rotate no_reflect no_shear #
rgb_color-st-attrib $-1 -1 $11 $-1 $2 0.627450980392156854 0.627450980392156854 0.627450980392156854 1 #
lump $-1 -1 $-1 $-1 $12 $2 #
transform $-1 -1 1 0 0 0 1 0 0 0 1 0 0 0 1 no_rotate no_reflect no_shear #
ATTRIB_CUSTOM-attrib $-1 -1 $-1 $3 $1 @20 Timestamp_attrib_def 1 1599687899317370 #
shell $-1 -1 $-1 $-1 $-1 $13 $-1 $4 #
ATTRIB_CUSTOM-attrib $-1 -1 $-1 $6 $2 @20 Timestamp_attrib_def 1 1599687909031656 #
shell $-1 -1 $-1 $-1 $-1 $14 $-1 $7 #
face $15 -1 $-1 $16 $17 $10 $-1 $18 forward single #
face $19 -1 $-1 $20 $21 $12 $-1 $22 forward single #
DXID-attrib $-1 -1 $-1 $-1 $13 @10 ASM ENTITY @1 0 #
face $23 -1 $-1 $24 $25 $10 $-1 $26 forward single #
loop $-1 -1 $-1 $-1 $27 $13 #
plane-surface $-1 -1 $-1 -1.000000014901161194 -1.000000014901161194 0 0 1 -0 -1 0 0 forward_v I I I I #
DXID-attrib $-1 -1 $-1 $-1 $14 @10 ASM ENTITY @1 0 #
face $28 -1 $-1 $29 $30 $12 $-1 $31 forward single #
loop $-1 -1 $-1 $-1 $32 $14 #
plane-surface $-1 -1 $-1 2.000000029802322388 0 0 0 -1 0 -1 -0 -0 forward_v I I I I #
DXID-attrib $-1 -1 $-1 $-1 $16 @10 ASM ENTITY @1 1 #
face $33 -1 $-1 $34 $35 $10 $-1 $36 forward single #
loop $-1 -1 $-1 $-1 $37 $16 #
plane-surface $-1 -1 $-1 -1.000000014901161194 -2.000000029802322388 0 1 0 0 0 1 0 forward_v I I I I #
coedge $38 -1 $-1 $39 $40 $41 $42 forward $17 0 $-1 #
DXID-attrib $-1 -1 $-1 $-1 $20 @10 ASM ENTITY @1 1 #
face $43 -1 $-1 $44 $45 $12 $-1 $46 forward single #
loop $-1 -1 $-1 $-1 $47 $20 #
plane-surface $-1 -1 $-1 2.000000029802322388 2.000000029802322388 0 1 -0 0 -0 -1 -0 forward_v I I I I #
coedge $48 -1 $-1 $49 $50 $51 $52 reversed $21 0 $-1 #
DXID-attrib $-1 -1 $-1 $-1 $24 @10 ASM ENTITY @1 2 #
face $53 -1 $-1 $54 $55 $10 $-1 $56 forward single #
loop $-1 -1 $-1 $-1 $57 $24 #
plane-surface $-1 -1 $-1 -2.000000029802322388 -2.000000029802322388 0 0 -1 0 1 0 0 forward_v I I I I #
coedge $58 -1 $-1 $59 $60 $61 $62 forward $25 0 $-1 #
ATTRIB_CUSTOM-attrib $-1 -1 $-1 $-1 $27 @17 sketch_attrib_def 1 1 3 @13 115 0 0 0 1 1 #
coedge $-1 -1 $-1 $63 $27 $64 $65 forward $17 0 $-1 #
coedge $-1 -1 $-1 $27 $63 $59 $66 reversed $17 0 $-1 #
coedge $67 -1 $-1 $61 $68 $27 $42 reversed $69 0 $-1 #
edge $-1 -1 $-1 $70 0 $71 1.000000014901161194 $27 $72 forward @7 unknown #
DXID-attrib $-1 -1 $-1 $-1 $29 @10 ASM ENTITY @1 2 #
face $73 -1 $-1 $74 $75 $12 $-1 $76 forward single #
loop $-1 -1 $-1 $-1 $77 $29 #
plane-surface $-1 -1 $-1 0 2.000000029802322388 0 0 1 0 1 -0 -0 forward_v I I I I #
coedge $78 -1 $-1 $79 $80 $81 $82 reversed $30 0 $-1 #
ATTRIB_CUSTOM-attrib $-1 -1 $-1 $-1 $32 @17 sketch_attrib_def 1 1 3 @13 105 0 0 0 1 1 #
coedge $-1 -1 $-1 $83 $32 $84 $85 forward $21 0 $-1 #
coedge $-1 -1 $-1 $32 $83 $79 $86 reversed $21 0 $-1 #
coedge $87 -1 $-1 $81 $88 $32 $52 forward $89 0 $-1 #
edge $-1 -1 $-1 $90 0 $91 2.000000029802322388 $51 $92 forward @7 unknown #
DXID-attrib $-1 -1 $-1 $-1 $34 @10 ASM ENTITY @1 3 #
face $93 -1 $-1 $94 $95 $10 $-1 $96 forward single #
loop $-1 -1 $-1 $-1 $97 $34 #
plane-surface $-1 -1 $-1 -2.000000029802322388 -1.000000014901161194 0 -1 0 0 0 -1 0 forward_v I I I I #
coedge $98 -1 $-1 $99 $100 $101 $102 forward $35 0 $-1 #
ATTRIB_CUSTOM-attrib $-1 -1 $-1 $-1 $37 @17 sketch_attrib_def 1 1 3 @13 114 0 0 0 1 1 #
coedge $-1 -1 $-1 $103 $37 $40 $66 forward $25 0 $-1 #
coedge $-1 -1 $-1 $37 $103 $99 $104 reversed $25 0 $-1 #
coedge $105 -1 $-1 $101 $41 $37 $62 reversed $69 0 $-1 #
edge $-1 -1 $-1 $106 0 $70 1.000000014901161194 $37 $107 forward @7 unknown #
coedge $-1 -1 $-1 $40 $39 $108 $109 reversed $17 0 $-1 #
coedge $-1 -1 $-1 $97 $110 $39 $65 reversed $55 0 $-1 #
edge $-1 -1 $-1 $71 0 $111 1 $64 $112 forward @7 unknown #
edge $-1 -1 $-1 $70 0 $113 1 $59 $114 forward @7 unknown #
ATTRIB_CUSTOM-attrib $-1 -1 $-1 $-1 $41 @17 sketch_attrib_def 1 1 3 @13 115 0 0 0 1 1 #
coedge $115 -1 $-1 $41 $101 $97 $116 reversed $69 0 $-1 #
loop $-1 -1 $-1 $-1 $68 $94 #
vertex $-1 -1 $-1 $62 1 $117 #
vertex $-1 -1 $-1 $116 0 $118 #
straight-curve $-1 -1 $-1 -1.000000014901161194 -1.000000014901161194 0 -1 0 0 F 0 F 1.000000014901161194 #
DXID-attrib $-1 -1 $-1 $-1 $44 @10 ASM ENTITY @1 3 #
face $119 -1 $-1 $120 $89 $12 $-1 $121 forward single #
loop $-1 -1 $-1 $-1 $122 $44 #
plane-surface $-1 -1 $-1 0 0 0 -1 -0 -0 -0 1 -0 forward_v I I I I #
coedge $123 -1 $-1 $124 $125 $126 $127 reversed $45 0 $-1 #
ATTRIB_CUSTOM-attrib $-1 -1 $-1 $-1 $47 @17 sketch_attrib_def 1 1 3 @13 106 0 0 0 1 1 #
coedge $-1 -1 $-1 $128 $47 $50 $86 forward $30 0 $-1 #
coedge $-1 -1 $-1 $47 $128 $124 $129 reversed $30 0 $-1 #
coedge $130 -1 $-1 $126 $51 $47 $82 forward $89 0 $-1 #
edge $-1 -1 $-1 $91 0 $131 2.000000029802322388 $81 $132 forward @7 unknown #
coedge $-1 -1 $-1 $50 $49 $133 $134 reversed $21 0 $-1 #
coedge $-1 -1 $-1 $122 $135 $49 $85 reversed $75 0 $-1 #
edge $-1 -1 $-1 $90 0 $136 1 $84 $137 forward @7 unknown #
edge $-1 -1 $-1 $91 0 $138 1 $79 $139 forward @7 unknown #
ATTRIB_CUSTOM-attrib $-1 -1 $-1 $-1 $51 @17 sketch_attrib_def 1 1 3 @13 105 0 0 0 1 1 #
coedge $140 -1 $-1 $51 $126 $122 $141 forward $89 0 $-1 #
loop $-1 -1 $-1 $-1 $88 $74 #
vertex $-1 -1 $-1 $141 1 $142 #
vertex $-1 -1 $-1 $52 1 $143 #
straight-curve $-1 -1 $-1 0 0 0 1 0 0 F 0 F 2.000000029802322388 #
DXID-attrib $-1 -1 $-1 $-1 $54 @10 ASM ENTITY @1 4 #
face $144 -1 $-1 $-1 $69 $10 $-1 $145 reversed single #
loop $-1 -1 $-1 $-1 $146 $54 #
plane-surface $-1 -1 $-1 -1.500000022351741791 -1.500000022351741791 1 0 0 1 1 0 0 forward_v I I I I #
coedge $147 -1 $-1 $148 $64 $68 $116 forward $55 0 $-1 #
ATTRIB_CUSTOM-attrib $-1 -1 $-1 $-1 $57 @17 sketch_attrib_def 1 1 3 @13 113 0 0 0 1 1 #
coedge $-1 -1 $-1 $149 $57 $60 $104 forward $35 0 $-1 #
coedge $-1 -1 $-1 $57 $149 $148 $150 reversed $35 0 $-1 #
coedge $151 -1 $-1 $68 $61 $57 $102 reversed $69 0 $-1 #
edge $-1 -1 $-1 $152 0 $106 1.000000014901161194 $57 $153 forward @7 unknown #
coedge $-1 -1 $-1 $60 $59 $154 $155 reversed $25 0 $-1 #
edge $-1 -1 $-1 $106 0 $156 1 $99 $157 forward @7 unknown #
ATTRIB_CUSTOM-attrib $-1 -1 $-1 $-1 $61 @17 sketch_attrib_def 1 1 3 @13 114 0 0 0 1 1 #
vertex $-1 -1 $-1 $102 1 $158 #
straight-curve $-1 -1 $-1 -1.000000014901161194 -2.000000029802322388 0 0 1 0 F 0 F 1.000000014901161194 #
coedge $-1 -1 $-1 $146 $154 $63 $109 forward $95 0 $-1 #
edge $-1 -1 $-1 $113 0 $111 1.000000014901161194 $63 $159 forward @7 unknown #
coedge $-1 -1 $-1 $64 $148 $146 $160 reversed $55 0 $-1 #
vertex $-1 -1 $-1 $65 1 $161 #
straight-curve $-1 -1 $-1 -2.000000029802322388 -1.000000014901161194 0 0 0 1 I I #
vertex $-1 -1 $-1 $66 1 $162 #
straight-curve $-1 -1 $-1 -1.000000014901161194 -1.000000014901161194 0 0 0 1 I I #
ATTRIB_CUSTOM-attrib $-1 -1 $-1 $-1 $68 @17 sketch_attrib_def 1 1 3 @13 116 0 0 0 1 1 #
edge $-1 -1 $-1 $71 0 $152 1.000000014901161194 $97 $163 forward @7 unknown #
point $-1 -1 $-1 -1.000000014901161194 -1.000000014901161194 0 #
point $-1 -1 $-1 -2.000000029802322388 -1.000000014901161194 0 #
DXID-attrib $-1 -1 $-1 $-1 $74 @10 ASM ENTITY @1 4 #
face $164 -1 $-1 $-1 $165 $12 $-1 $166 forward single #
plane-surface $-1 -1 $-1 1.000000014901161194 1.000000014901161194 0 0 0 1 1 0 0 forward_v I I I I #
coedge $167 -1 $-1 $168 $84 $88 $141 reversed $75 0 $-1 #
ATTRIB_CUSTOM-attrib $-1 -1 $-1 $-1 $77 @17 sketch_attrib_def 1 1 3 @13 107 0 0 0 1 1 #
coedge $-1 -1 $-1 $169 $77 $80 $129 forward $45 0 $-1 #
coedge $-1 -1 $-1 $77 $169 $168 $170 reversed $45 0 $-1 #
coedge $171 -1 $-1 $88 $81 $77 $127 forward $89 0 $-1 #
edge $-1 -1 $-1 $131 0 $172 2.000000029802322388 $126 $173 forward @7 unknown #
coedge $-1 -1 $-1 $80 $79 $174 $175 reversed $30 0 $-1 #
edge $-1 -1 $-1 $131 0 $176 1 $124 $177 forward @7 unknown #
ATTRIB_CUSTOM-attrib $-1 -1 $-1 $-1 $81 @17 sketch_attrib_def 1 1 3 @13 106 0 0 0 1 1 #
vertex $-1 -1 $-1 $82 1 $178 #
straight-curve $-1 -1 $-1 2.000000029802322388 0 0 0 1 0 F 0 F 2.000000029802322388 #
coedge $-1 -1 $-1 $179 $174 $83 $134 forward $165 0 $-1 #
edge $-1 -1 $-1 $138 -2.000000029802322388 $136 -0 $83 $180 forward @7 unknown #
coedge $-1 -1 $-1 $84 $168 $179 $181 reversed $75 0 $-1 #
vertex $-1 -1 $-1 $85 1 $182 #
straight-curve $-1 -1 $-1 0 0 0 0 0 -1 I I #
vertex $-1 -1 $-1 $86 1 $183 #
straight-curve $-1 -1 $-1 2.000000029802322388 0 0 0 0 -1 I I #
ATTRIB_CUSTOM-attrib $-1 -1 $-1 $-1 $88 @17 sketch_attrib_def 1 1 3 @13 108 0 0 0 1 1 #
edge $-1 -1 $-1 $172 0 $90 2.000000029802322388 $88 $184 forward @7 unknown #
point $-1 -1 $-1 0 0 0 #
point $-1 -1 $-1 2.000000029802322388 0 0 #
DXID-attrib $-1 -1 $-1 $-1 $94 @10 ASM ENTITY @1 5 #
plane-surface $-1 -1 $-1 -1.500000022351741791 -1.500000022351741791 0 0 0 1 1 0 0 forward_v I I I I #
coedge $-1 -1 $-1 $185 $108 $110 $160 forward $95 0 $-1 #
ATTRIB_CUSTOM-attrib $-1 -1 $-1 $-1 $97 @17 sketch_attrib_def 1 1 3 @13 116 0 0 0 1 1 #
coedge $-1 -1 $-1 $110 $97 $100 $150 forward $55 0 $-1 #
coedge $-1 -1 $-1 $100 $99 $185 $186 reversed $35 0 $-1 #
edge $-1 -1 $-1 $152 0 $187 1 $148 $188 forward @7 unknown #
ATTRIB_CUSTOM-attrib $-1 -1 $-1 $-1 $101 @17 sketch_attrib_def 1 1 3 @13 113 0 0 0 1 1 #
vertex $-1 -1 $-1 $116 1 $189 #
straight-curve $-1 -1 $-1 -2.000000029802322388 -2.000000029802322388 0 1 0 0 F 0 F 1.000000014901161194 #
coedge $-1 -1 $-1 $108 $185 $103 $155 forward $95 0 $-1 #
edge $-1 -1 $-1 $156 0 $113 1.000000014901161194 $103 $190 forward @7 unknown #
vertex $-1 -1 $-1 $104 1 $191 #
straight-curve $-1 -1 $-1 -1.000000014901161194 -2.000000029802322388 0 0 0 1 I I #
point $-1 -1 $-1 -1.000000014901161194 -2.000000029802322388 0 #
straight-curve $-1 -1 $-1 -1.000000014901161194 -1.000000014901161194 1 -1 0 0 I I #
edge $-1 -1 $-1 $111 0 $187 1.000000014901161194 $110 $192 forward @7 unknown #
point $-1 -1 $-1 -2.000000029802322388 -1.000000014901161194 1 #
point $-1 -1 $-1 -1.000000014901161194 -1.000000014901161194 1 #
straight-curve $-1 -1 $-1 -2.000000029802322388 -1.000000014901161194 0 0 -1 0 F 0 F 1.000000014901161194 #
DXID-attrib $-1 -1 $-1 $-1 $120 @10 ASM ENTITY @1 5 #
loop $-1 -1 $-1 $-1 $179 $120 #
plane-surface $-1 -1 $-1 1.000000014901161194 1.000000014901161194 -1 0 0 -1 -1 0 0 forward_v I I I I #
ATTRIB_CUSTOM-attrib $-1 -1 $-1 $-1 $122 @17 sketch_attrib_def 1 1 3 @13 108 0 0 0 1 1 #
coedge $-1 -1 $-1 $135 $122 $125 $170 forward $75 0 $-1 #
coedge $-1 -1 $-1 $125 $124 $193 $194 reversed $45 0 $-1 #
edge $-1 -1 $-1 $172 0 $195 1 $168 $196 forward @7 unknown #
ATTRIB_CUSTOM-attrib $-1 -1 $-1 $-1 $126 @17 sketch_attrib_def 1 1 3 @13 107 0 0 0 1 1 #
vertex $-1 -1 $-1 $141 0 $197 #
straight-curve $-1 -1 $-1 2.000000029802322388 2.000000029802322388 0 -1 0 0 F 0 F 2.000000029802322388 #
coedge $-1 -1 $-1 $133 $193 $128 $175 forward $165 0 $-1 #
edge $-1 -1 $-1 $176 -2.000000029802322388 $138 -0 $128 $198 forward @7 unknown #
vertex $-1 -1 $-1 $129 1 $199 #
straight-curve $-1 -1 $-1 2.000000029802322388 2.000000029802322388 0 0 0 -1 I I #
point $-1 -1 $-1 2.000000029802322388 2.000000029802322388 0 #
coedge $-1 -1 $-1 $193 $133 $135 $181 forward $165 0 $-1 #
straight-curve $-1 -1 $-1 0 0 -1 -1 -0 -0 I I #
edge $-1 -1 $-1 $136 -2.000000029802322388 $195 -0 $135 $200 forward @7 unknown #
point $-1 -1 $-1 0 0 -1 #
point $-1 -1 $-1 2.000000029802322388 0 -1 #
straight-curve $-1 -1 $-1 0 2.000000029802322388 0 0 -1 0 F 0 F 2.000000029802322388 #
coedge $-1 -1 $-1 $154 $146 $149 $186 forward $95 0 $-1 #
edge $-1 -1 $-1 $187 0 $156 1.000000014901161194 $149 $201 forward @7 unknown #
vertex $-1 -1 $-1 $150 1 $202 #
straight-curve $-1 -1 $-1 -2.000000029802322388 -2.000000029802322388 0 0 0 1 I I #
point $-1 -1 $-1 -2.000000029802322388 -2.000000029802322388 0 #
straight-curve $-1 -1 $-1 -1.000000014901161194 -2.000000029802322388 1 0 1 0 I I #
point $-1 -1 $-1 -1.000000014901161194 -2.000000029802322388 1 #
straight-curve $-1 -1 $-1 -2.000000029802322388 -1.000000014901161194 1 0 -1 0 I I #
coedge $-1 -1 $-1 $174 $179 $169 $194 forward $165 0 $-1 #
edge $-1 -1 $-1 $195 -2.000000029802322388 $176 -0 $169 $203 forward @7 unknown #
vertex $-1 -1 $-1 $170 1 $204 #
straight-curve $-1 -1 $-1 0 2.000000029802322388 0 0 0 -1 I I #
point $-1 -1 $-1 0 2.000000029802322388 0 #
straight-curve $-1 -1 $-1 2.000000029802322388 0 -1 -0 -1 -0 I I #
point $-1 -1 $-1 2.000000029802322388 2.000000029802322388 -1 #
straight-curve $-1 -1 $-1 0 2.000000029802322388 -1 0 1 0 I I #
straight-curve $-1 -1 $-1 -2.000000029802322388 -2.000000029802322388 1 1 0 0 I I #
point $-1 -1 $-1 -2.000000029802322388 -2.000000029802322388 1 #
straight-curve $-1 -1 $-1 2.000000029802322388 2.000000029802322388 -1 1 0 0 I I #
point $-1 -1 $-1 0 2.000000029802322388 -1 #
End-of-ASM-data 