22600 0 2 4           
30 Autodesk Translation Framework 21 ASM 226.3.0.65535 OSX 24 Tue Aug 25 09:27:50 2020 
10 9.999999999999999547e-07 1.000000000000000036e-10 
asmheader $-1 -1 @13 226.3.0.65535 #
body $2 -1 $-1 $3 $-1 $4 #
rgb_color-st-attrib $-1 -1 $5 $-1 $1 0.627450980392156854 0.627450980392156854 0.627450980392156854 1 #
lump $-1 -1 $-1 $-1 $6 $1 #
transform $-1 -1 1 0 0 0 1 0 0 0 1 0 0 0 1 no_rotate no_reflect no_shear #
ATTRIB_CUSTOM-attrib $-1 -1 $-1 $2 $1 @20 Timestamp_attrib_def 1 1589514621661663 #
shell $-1 -1 $-1 $-1 $-1 $7 $-1 $3 #
face $8 -1 $-1 $9 $10 $6 $-1 $11 reversed single #
DXID-attrib $-1 -1 $-1 $-1 $7 @10 ASM ENTITY @1 0 #
face $12 -1 $-1 $13 $14 $6 $-1 $15 reversed single #
loop $-1 -1 $-1 $-1 $16 $7 #
plane-surface $-1 -1 $-1 3.500000052154064178 0.3000000044703483582 2.200000000000000178 -0 -1 -0 -1 0 0 forward_v I I I I #
DXID-attrib $-1 -1 $-1 $-1 $9 @10 ASM ENTITY @1 1 #
face $17 -1 $-1 $18 $19 $6 $-1 $20 reversed single #
loop $-1 -1 $-1 $-1 $21 $9 #
plane-surface $-1 -1 $-1 3.500000052154064178 2.200000032782554626 2.200000000000000178 1 0 0 0 -1 0 forward_v I I I I #
coedge $22 -1 $-1 $23 $24 $25 $26 reversed $10 0 $-1 #
DXID-attrib $-1 -1 $-1 $-1 $13 @10 ASM ENTITY @1 2 #
face $27 -1 $-1 $28 $29 $6 $-1 $30 reversed single #
loop $-1 -1 $-1 $-1 $31 $13 #
plane-surface $-1 -1 $-1 -2.000000029802322388 2.200000032782554626 2.200000000000000178 -0 1 0 1 0 0 forward_v I I I I #
coedge $32 -1 $-1 $33 $34 $35 $36 reversed $14 0 $-1 #
ATTRIB_CUSTOM-attrib $-1 -1 $-1 $-1 $16 @17 sketch_attrib_def 1 1 3 @13 130 0 1 0 1 2 #
coedge $-1 -1 $-1 $37 $16 $34 $38 forward $10 0 $-1 #
coedge $-1 -1 $-1 $16 $37 $39 $40 reversed $10 0 $-1 #
coedge $-1 -1 $-1 $41 $35 $16 $26 forward $42 0 $-1 #
edge $-1 -1 $-1 $43 -1.375000020489096642 $44 1.62500002421438694 $25 $45 forward @7 unknown #
DXID-attrib $-1 -1 $-1 $-1 $18 @10 ASM ENTITY @1 3 #
face $46 -1 $-1 $47 $48 $6 $-1 $49 reversed single #
loop $-1 -1 $-1 $-1 $50 $18 #
plane-surface $-1 -1 $-1 -2.000000029802322388 1.000000014901161194 2.200000000000000178 -1 0 0 0 1 0 forward_v I I I I #
coedge $51 -1 $-1 $52 $53 $54 $55 reversed $19 0 $-1 #
ATTRIB_CUSTOM-attrib $-1 -1 $-1 $-1 $21 @17 sketch_attrib_def 1 1 3 @13 133 0 1 0 1 1 #
coedge $-1 -1 $-1 $56 $21 $53 $57 forward $14 0 $-1 #
coedge $-1 -1 $-1 $21 $56 $23 $38 reversed $14 0 $-1 #
coedge $-1 -1 $-1 $25 $54 $21 $36 forward $42 0 $-1 #
edge $-1 -1 $-1 $58 -0.3500000052154064178 $43 1.55000002309679985 $35 $59 forward @7 unknown #
coedge $-1 -1 $-1 $24 $23 $60 $61 forward $10 0 $-1 #
edge $-1 -1 $-1 $43 0 $62 1.199999999999999956 $34 $63 forward @7 unknown #
coedge $-1 -1 $-1 $64 $65 $24 $40 forward $66 0 $-1 #
edge $-1 -1 $-1 $44 -1.100000000000000089 $67 0.09999999999999986677 $39 $68 forward @7 unknown #
coedge $-1 -1 $-1 $69 $25 $65 $70 forward $42 0 $-1 #
loop $-1 -1 $-1 $-1 $25 $71 #
vertex $-1 -1 $-1 $26 0 $72 #
vertex $-1 -1 $-1 $70 0 $73 #
straight-curve $-1 -1 $-1 2.125000031664967537 0.3000000044703483582 2.200000000000000178 -1 0 0 I I #
DXID-attrib $-1 -1 $-1 $-1 $28 @10 ASM ENTITY @1 4 #
face $74 -1 $-1 $75 $66 $6 $-1 $76 forward single #
loop $-1 -1 $-1 $-1 $77 $28 #
plane-surface $-1 -1 $-1 0.7500000111758708954 1.250000018626451492 1.000000000000000222 0 0 -1 -1 0 0 forward_v I I I I #
coedge $78 -1 $-1 $79 $80 $81 $82 reversed $29 0 $-1 #
ATTRIB_CUSTOM-attrib $-1 -1 $-1 $-1 $31 @17 sketch_attrib_def 1 1 3 @13 132 0 1 0 1 1 #
coedge $-1 -1 $-1 $83 $31 $80 $84 forward $19 0 $-1 #
coedge $-1 -1 $-1 $31 $83 $33 $57 reversed $19 0 $-1 #
coedge $-1 -1 $-1 $35 $81 $31 $55 forward $42 0 $-1 #
edge $-1 -1 $-1 $85 -1.375000020489096642 $58 4.125000061467289925 $54 $86 forward @7 unknown #
coedge $-1 -1 $-1 $34 $33 $87 $88 forward $14 0 $-1 #
edge $-1 -1 $-1 $58 0 $89 1.199999999999999956 $53 $90 forward @7 unknown #
vertex $-1 -1 $-1 $36 0 $91 #
straight-curve $-1 -1 $-1 3.500000052154064178 1.850000027567148209 2.200000000000000178 0 -1 0 I I #
coedge $-1 -1 $-1 $87 $92 $37 $61 reversed $48 0 $-1 #
edge $-1 -1 $-1 $62 0 $67 3.000000044703483582 $37 $93 forward @7 unknown #
vertex $-1 -1 $-1 $38 1 $94 #
straight-curve $-1 -1 $-1 3.500000052154064178 0.3000000044703483582 2.200000000000000178 0 0 -1 I I #
coedge $-1 -1 $-1 $95 $39 $92 $96 forward $66 0 $-1 #
coedge $-1 -1 $-1 $39 $97 $41 $70 reversed $66 0 $-1 #
loop $-1 -1 $-1 $-1 $39 $47 #
vertex $-1 -1 $-1 $40 1 $98 #
straight-curve $-1 -1 $-1 0.5000000074505805969 0.3000000044703483582 1.100000000000000089 0 0 -1 I I #
coedge $-1 -1 $-1 $99 $41 $100 $101 forward $42 0 $-1 #
edge $-1 -1 $-1 $44 -0.3000000044703483582 $102 -0 $65 $103 forward @7 unknown #
face $104 -1 $-1 $105 $42 $6 $-1 $106 forward single #
point $-1 -1 $-1 3.500000052154064178 0.3000000044703483582 2.200000000000000178 #
point $-1 -1 $-1 0.5000000074505805969 0.3000000044703483582 2.200000000000000178 #
DXID-attrib $-1 -1 $-1 $-1 $47 @10 ASM ENTITY @1 5 #
face $107 -1 $-1 $108 $109 $6 $-1 $110 forward single #
plane-surface $-1 -1 $-1 0.5000000074505805969 1.000000014901161194 0 -1 0 0 -0 -1 -0 forward_v I I I I #
coedge $-1 -1 $-1 $92 $111 $112 $113 reversed $48 0 $-1 #
ATTRIB_CUSTOM-attrib $-1 -1 $-1 $-1 $50 @17 sketch_attrib_def 1 1 3 @13 131 0 1 0 2 2 #
coedge $-1 -1 $-1 $114 $50 $115 $116 reversed $29 0 $-1 #
coedge $-1 -1 $-1 $50 $114 $52 $84 reversed $29 0 $-1 #
coedge $-1 -1 $-1 $54 $117 $50 $82 forward $42 0 $-1 #
edge $-1 -1 $-1 $118 -0.2500000037252902985 $85 0.9500000141561031342 $81 $119 forward @7 unknown #
coedge $-1 -1 $-1 $53 $52 $120 $121 forward $19 0 $-1 #
edge $-1 -1 $-1 $85 0 $122 1.199999999999999956 $80 $123 forward @7 unknown #
vertex $-1 -1 $-1 $55 0 $124 #
straight-curve $-1 -1 $-1 -0.6250000093132257462 2.200000032782554626 2.200000000000000178 1 0 -0 I I #
coedge $-1 -1 $-1 $120 $60 $56 $88 reversed $48 0 $-1 #
edge $-1 -1 $-1 $89 0 $62 1.900000028312206268 $56 $125 forward @7 unknown #
vertex $-1 -1 $-1 $57 1 $126 #
straight-curve $-1 -1 $-1 3.500000052154064178 2.200000032782554626 2.200000000000000178 0 0 -1 I I #
point $-1 -1 $-1 3.500000052154064178 2.200000032782554626 2.200000000000000178 #
coedge $-1 -1 $-1 $60 $77 $64 $96 reversed $48 0 $-1 #
straight-curve $-1 -1 $-1 3.500000052154064178 0.3000000044703483582 1.000000000000000222 -1 0 0 I I #
point $-1 -1 $-1 3.500000052154064178 0.3000000044703483582 1.000000000000000222 #
coedge $-1 -1 $-1 $127 $64 $128 $129 reversed $66 0 $-1 #
edge $-1 -1 $-1 $67 -0.8250000122934579849 $130 -0.1250000018626451492 $64 $131 forward @7 unknown #
coedge $-1 -1 $-1 $65 $127 $132 $133 forward $66 0 $-1 #
point $-1 -1 $-1 0.5000000074505805969 0.3000000044703483582 1.000000000000000222 #
coedge $-1 -1 $-1 $134 $69 $135 $136 forward $42 0 $-1 #
coedge $-1 -1 $-1 $132 $137 $69 $101 reversed $138 0 $-1 #
edge $-1 -1 $-1 $102 -3.500000052154064178 $139 -0 $100 $140 forward @7 unknown #
vertex $-1 -1 $-1 $133 1 $141 #
straight-curve $-1 -1 $-1 0.5000000074505805969 0 2.200000000000000178 -0 -1 -0 I I #
DXID-attrib $-1 -1 $-1 $-1 $71 @10 ASM ENTITY @2 11 #
face $142 -1 $-1 $-1 $143 $6 $-1 $144 reversed single #
plane-surface $-1 -1 $-1 0.7500000111758708954 1.500000022351741791 2.200000000000000178 0 0 1 1 0 0 forward_v I I I I #
DXID-attrib $-1 -1 $-1 $-1 $75 @10 ASM ENTITY @1 6 #
face $145 -1 $-1 $146 $138 $6 $-1 $147 forward single #
loop $-1 -1 $-1 $-1 $112 $75 #
plane-surface $-1 -1 $-1 -2.500000037252902985 1.000000014901161194 0 0 -1 0 1 -0 -0 forward_v I I I I #
coedge $-1 -1 $-1 $77 $120 $114 $148 reversed $48 0 $-1 #
coedge $-1 -1 $-1 $115 $128 $77 $113 forward $109 0 $-1 #
edge $-1 -1 $-1 $130 -1.375000020489096642 $149 1.125000016763806343 $112 $150 forward @7 unknown #
coedge $-1 -1 $-1 $80 $79 $111 $148 forward $29 0 $-1 #
coedge $-1 -1 $-1 $151 $112 $79 $116 forward $109 0 $-1 #
edge $-1 -1 $-1 $149 -0.09999999999999986677 $118 1.100000000000000089 $115 $152 forward @7 unknown #
coedge $-1 -1 $-1 $81 $153 $151 $154 forward $42 0 $-1 #
vertex $-1 -1 $-1 $116 1 $155 #
straight-curve $-1 -1 $-1 -2.000000029802322388 1.250000018626451492 2.200000000000000178 0 1 -0 I I #
coedge $-1 -1 $-1 $111 $87 $83 $121 reversed $48 0 $-1 #
edge $-1 -1 $-1 $122 0 $89 5.500000081956386566 $83 $156 forward @7 unknown #
vertex $-1 -1 $-1 $84 1 $157 #
straight-curve $-1 -1 $-1 -2.000000029802322388 2.200000032782554626 2.200000000000000178 0 0 -1 I I #
point $-1 -1 $-1 -2.000000029802322388 2.200000032782554626 2.200000000000000178 #
straight-curve $-1 -1 $-1 3.500000052154064178 2.200000032782554626 1.000000000000000222 0 -1 0 I I #
point $-1 -1 $-1 3.500000052154064178 2.200000032782554626 1.000000000000000222 #
coedge $158 -1 $-1 $97 $95 $159 $160 reversed $66 0 $-1 #
coedge $-1 -1 $-1 $112 $161 $95 $129 forward $109 0 $-1 #
edge $-1 -1 $-1 $162 0 $130 1.000000000000000222 $128 $163 forward @7 unknown #
vertex $-1 -1 $-1 $113 0 $164 #
straight-curve $-1 -1 $-1 0.5000000074505805969 1.125000016763806343 1.000000000000000222 0 1 0 I I #
coedge $-1 -1 $-1 $165 $100 $97 $133 reversed $138 0 $-1 #
edge $-1 -1 $-1 $166 0 $102 2.200000000000000178 $97 $167 forward @7 unknown #
coedge $-1 -1 $-1 $153 $99 $168 $169 forward $42 0 $-1 #
coedge $-1 -1 $-1 $170 $171 $99 $136 reversed $172 0 $-1 #
edge $-1 -1 $-1 $139 -3.000000044703483582 $173 -0 $135 $174 forward @7 unknown #
coedge $-1 -1 $-1 $100 $165 $170 $175 forward $138 0 $-1 #
loop $-1 -1 $-1 $-1 $165 $108 #
vertex $-1 -1 $-1 $175 1 $176 #
straight-curve $-1 -1 $-1 4.000000059604644775 0 2.200000000000000178 1 0 0 I I #
point $-1 -1 $-1 0.5000000074505805969 0 2.200000000000000178 #
DXID-attrib $-1 -1 $-1 $-1 $105 @10 ASM ENTITY @2 12 #
loop $-1 -1 $-1 $-1 $177 $105 #
plane-surface $-1 -1 $-1 0.7500000111758708954 1.500000022351741791 0 0 -0 1 1 0 -0 forward_v I I I I #
DXID-attrib $-1 -1 $-1 $-1 $108 @10 ASM ENTITY @1 7 #
face $178 -1 $-1 $179 $180 $6 $-1 $181 forward single #
plane-surface $-1 -1 $-1 0.5000000074505805969 0 0 0 -1 0 1 -0 -0 forward_v I I I I #
edge $-1 -1 $-1 $149 0.7000000104308128357 $122 1.900000028312206268 $114 $182 forward @7 unknown #
vertex $-1 -1 $-1 $116 0 $183 #
straight-curve $-1 -1 $-1 -0.8750000130385160446 1.000000014901161194 1.000000000000000222 -1 -0 -0 I I #
coedge $-1 -1 $-1 $184 $115 $117 $154 reversed $109 0 $-1 #
straight-curve $-1 -1 $-1 -2.000000029802322388 1.000000014901161194 1.100000000000000089 0 0 1 I I #
coedge $-1 -1 $-1 $117 $134 $185 $186 forward $42 0 $-1 #
edge $-1 -1 $-1 $187 -3.000000044703483582 $118 -2.500000037252902985 $151 $188 forward @7 unknown #
point $-1 -1 $-1 -2.000000029802322388 1.000000014901161194 2.200000000000000178 #
straight-curve $-1 -1 $-1 -2.000000029802322388 2.200000032782554626 1.000000000000000222 1 0 0 I I #
point $-1 -1 $-1 -2.000000029802322388 2.200000032782554626 1.000000000000000222 #
ATTRIB_CUSTOM-attrib $-1 -1 $-1 $-1 $127 @17 sketch_attrib_def 1 1 3 @13 108 0 1 0 1 1 #
coedge $189 -1 $-1 $190 $191 $127 $160 forward $143 0 $-1 #
edge $-1 -1 $-1 $166 0 $162 1.000000014901161194 $127 $192 forward @7 unknown #
coedge $193 -1 $-1 $128 $184 $190 $194 reversed $109 0 $-1 #
vertex $-1 -1 $-1 $194 0 $195 #
straight-curve $-1 -1 $-1 0.5000000074505805969 1.000000014901161194 0 0 0 1 I I #
point $-1 -1 $-1 0.5000000074505805969 1.000000014901161194 1.000000000000000222 #
coedge $196 -1 $-1 $137 $132 $191 $197 reversed $138 0 $-1 #
vertex $-1 -1 $-1 $160 0 $198 #
straight-curve $-1 -1 $-1 0.5000000074505805969 0 0 0 0 1 I I #
coedge $-1 -1 $-1 $199 $200 $134 $169 reversed $201 0 $-1 #
edge $-1 -1 $-1 $173 -6.50000009685754776 $202 -0 $168 $203 forward @7 unknown #
coedge $-1 -1 $-1 $204 $135 $137 $175 reversed $172 0 $-1 #
coedge $-1 -1 $-1 $135 $204 $199 $205 forward $172 0 $-1 #
loop $-1 -1 $-1 $-1 $204 $206 #
vertex $-1 -1 $-1 $205 1 $207 #
straight-curve $-1 -1 $-1 4.000000059604644775 3.000000044703483582 2.200000000000000178 0 1 0 I I #
edge $-1 -1 $-1 $208 0 $139 2.200000000000000178 $170 $209 forward @7 unknown #
point $-1 -1 $-1 4.000000059604644775 0 2.200000000000000178 #
coedge $210 -1 $-1 $191 $211 $204 $212 forward $143 0 $-1 #
DXID-attrib $-1 -1 $-1 $-1 $146 @10 ASM ENTITY @1 8 #
face $213 -1 $-1 $206 $201 $6 $-1 $214 forward single #
loop $-1 -1 $-1 $-1 $215 $146 #
plane-surface $-1 -1 $-1 -2.500000037252902985 3.000000044703483582 0 -1 0 0 -0 -1 -0 forward_v I I I I #
straight-curve $-1 -1 $-1 -2.000000029802322388 0.3000000044703483582 1.000000000000000222 0 1 0 I I #
point $-1 -1 $-1 -2.000000029802322388 1.000000014901161194 1.000000000000000222 #
coedge $-1 -1 $-1 $161 $151 $216 $217 reversed $109 0 $-1 #
coedge $-1 -1 $-1 $218 $216 $153 $186 reversed $180 0 $-1 #
edge $-1 -1 $-1 $202 -2.000000029802322388 $187 -0 $185 $219 forward @7 unknown #
vertex $-1 -1 $-1 $217 1 $220 #
straight-curve $-1 -1 $-1 0.5000000074505805969 1.000000014901161194 2.200000000000000178 1 0 0 I I #
ATTRIB_CUSTOM-attrib $-1 -1 $-1 $-1 $159 @17 sketch_attrib_def 1 1 3 @13 108 0 1 0 1 1 #
coedge $221 -1 $-1 $222 $159 $161 $194 forward $143 0 $-1 #
coedge $223 -1 $-1 $159 $177 $165 $197 forward $143 0 $-1 #
straight-curve $-1 -1 $-1 0.5000000074505805969 0 0 0 1 0 F 0 F 1.000000014901161194 #
ATTRIB_CUSTOM-attrib $-1 -1 $-1 $-1 $161 @17 sketch_attrib_def 1 1 3 @13 110 0 1 0 1 1 #
edge $-1 -1 $-1 $162 0 $224 3.000000044703483582 $161 $225 forward @7 unknown #
point $-1 -1 $-1 0.5000000074505805969 1.000000014901161194 0 #
ATTRIB_CUSTOM-attrib $-1 -1 $-1 $-1 $165 @17 sketch_attrib_def 1 1 3 @13 112 0 1 0 1 1 #
edge $-1 -1 $-1 $208 0 $166 3.500000052154064178 $165 $226 forward @7 unknown #
point $-1 -1 $-1 0.5000000074505805969 0 0 #
coedge $-1 -1 $-1 $227 $168 $171 $205 reversed $201 0 $-1 #
coedge $-1 -1 $-1 $168 $227 $218 $228 forward $201 0 $-1 #
loop $-1 -1 $-1 $-1 $227 $179 #
vertex $-1 -1 $-1 $228 1 $229 #
straight-curve $-1 -1 $-1 -2.500000037252902985 3.000000044703483582 2.200000000000000178 -1 -0 -0 I I #
coedge $230 -1 $-1 $171 $170 $177 $212 reversed $172 0 $-1 #
edge $-1 -1 $-1 $231 0 $173 2.200000000000000178 $171 $232 forward @7 unknown #
face $233 -1 $-1 $71 $172 $6 $-1 $234 forward single #
point $-1 -1 $-1 4.000000059604644775 3.000000044703483582 2.200000000000000178 #
vertex $-1 -1 $-1 $212 1 $235 #
straight-curve $-1 -1 $-1 4.000000059604644775 0 0 0 0 1 I I #
ATTRIB_CUSTOM-attrib $-1 -1 $-1 $-1 $177 @17 sketch_attrib_def 1 1 3 @13 105 0 1 0 1 1 #
coedge $236 -1 $-1 $177 $222 $227 $237 forward $143 0 $-1 #
edge $-1 -1 $-1 $231 0 $208 3.000000044703483582 $204 $238 forward @7 unknown #
DXID-attrib $-1 -1 $-1 $-1 $179 @10 ASM ENTITY @1 9 #
plane-surface $-1 -1 $-1 4.000000059604644775 3.000000044703483582 0 0 1 0 -1 -0 -0 forward_v I I I I #
coedge $239 -1 $-1 $216 $218 $222 $240 reversed $180 0 $-1 #
coedge $-1 -1 $-1 $185 $215 $184 $217 forward $180 0 $-1 #
edge $-1 -1 $-1 $224 0 $187 2.200000000000000178 $216 $241 forward @7 unknown #
coedge $-1 -1 $-1 $215 $185 $200 $228 reversed $180 0 $-1 #
straight-curve $-1 -1 $-1 -2.500000037252902985 1.000000014901161194 2.200000000000000178 -0 -1 -0 I I #
point $-1 -1 $-1 -2.500000037252902985 1.000000014901161194 2.200000000000000178 #
ATTRIB_CUSTOM-attrib $-1 -1 $-1 $-1 $190 @17 sketch_attrib_def 1 1 3 @13 110 0 1 0 1 1 #
coedge $242 -1 $-1 $211 $190 $215 $240 forward $143 0 $-1 #
ATTRIB_CUSTOM-attrib $-1 -1 $-1 $-1 $191 @17 sketch_attrib_def 1 1 3 @13 112 0 1 0 1 1 #
vertex $-1 -1 $-1 $240 0 $243 #
straight-curve $-1 -1 $-1 0.5000000074505805969 1.000000014901161194 0 -1 0 0 F 0 F 3.000000044703483582 #
straight-curve $-1 -1 $-1 4.000000059604644775 0 0 -1 0 0 F 0 F 3.500000052154064178 #
coedge $244 -1 $-1 $200 $199 $211 $237 reversed $201 0 $-1 #
edge $-1 -1 $-1 $245 0 $202 2.200000000000000178 $200 $246 forward @7 unknown #
point $-1 -1 $-1 -2.500000037252902985 3.000000044703483582 2.200000000000000178 #
ATTRIB_CUSTOM-attrib $-1 -1 $-1 $-1 $204 @17 sketch_attrib_def 1 1 3 @13 105 0 1 0 1 1 #
vertex $-1 -1 $-1 $212 0 $247 #
straight-curve $-1 -1 $-1 4.000000059604644775 3.000000044703483582 0 0 0 1 I I #
DXID-attrib $-1 -1 $-1 $-1 $206 @10 ASM ENTITY @2 10 #
plane-surface $-1 -1 $-1 4.000000059604644775 0 0 1 0 -0 -0 1 -0 forward_v I I I I #
point $-1 -1 $-1 4.000000059604644775 0 0 #
ATTRIB_CUSTOM-attrib $-1 -1 $-1 $-1 $211 @17 sketch_attrib_def 1 1 3 @13 103 0 1 0 1 1 #
edge $-1 -1 $-1 $245 0 $231 6.50000009685754776 $227 $248 forward @7 unknown #
straight-curve $-1 -1 $-1 4.000000059604644775 3.000000044703483582 0 0 -1 0 F 0 F 3.000000044703483582 #
ATTRIB_CUSTOM-attrib $-1 -1 $-1 $-1 $215 @17 sketch_attrib_def 1 1 3 @13 111 0 1 0 1 1 #
edge $-1 -1 $-1 $224 0 $245 2.000000029802322388 $215 $249 forward @7 unknown #
straight-curve $-1 -1 $-1 -2.500000037252902985 1.000000014901161194 0 0 0 1 I I #
ATTRIB_CUSTOM-attrib $-1 -1 $-1 $-1 $222 @17 sketch_attrib_def 1 1 3 @13 111 0 1 0 1 1 #
point $-1 -1 $-1 -2.500000037252902985 1.000000014901161194 0 #
ATTRIB_CUSTOM-attrib $-1 -1 $-1 $-1 $227 @17 sketch_attrib_def 1 1 3 @13 103 0 1 0 1 1 #
vertex $-1 -1 $-1 $237 0 $250 #
straight-curve $-1 -1 $-1 -2.500000037252902985 3.000000044703483582 0 0 0 1 I I #
point $-1 -1 $-1 4.000000059604644775 3.000000044703483582 0 #
straight-curve $-1 -1 $-1 -2.500000037252902985 3.000000044703483582 0 1 0 0 F 0 F 6.50000009685754776 #
straight-curve $-1 -1 $-1 -2.500000037252902985 1.000000014901161194 0 0 1 0 F 0 F 2.000000029802322388 #
point $-1 -1 $-1 -2.500000037252902985 3.000000044703483582 0 #
End-of-ASM-data 